<svg xmlns="http://www.w3.org/2000/svg" width="921" height="690" fill="none" viewBox="0 0 921 690">
  <path fill="#fff" d="M1.5 1H920v688H1.5z"/>
  <path stroke="#000" d="m421.5 190 4.5 14.5m-414 484-3-6c-1-.5-3.3-2.1-4.5-4.5-1.2-2.4-2.5-5.667-3-7L9 661l8-9h3.5v-8L32 629.5l3.5-5 3.5-3V607h6.5l7-7h4l3.5-8 5.5-5 5-19H75l3.5-18 5.5-10 4-9 5.5-5.5L99 514l8.5-5 6-8.5 6.5-6 5.5-4V485l3-6.5 6.5-5.5 5-9.5 4.5-10 3-9.5v-5l-7.5-3.5V415l4.5-4 7-4 12.5-14 4.5-8.5-4.5-8.5 4.5-4 7-4v-7.5l10 3.5 10-15v-8.5L192 331v-10.5h3.5l4.5-4h8l6.5-17v-30l4.5 4 4.5-7.5 7 3.5 20-12c3.5-5.667 11.3-16.7 14.5-15.5 3.2 1.2 7-3.5 8.5-6H292l20.5-11.5h17l9.5-6h27m0 3 8 4.5 6.5 3 2.5-10 8.5-5.5 6 5.5 8.5-5.5 8 8 7.5-17 4 .941m0 0 13 3.059v-4l-2.5-3h-5l-5.5 3.941Zm-4-14.941L431 179l13.5-9 8.5-7.5 9 4 13-7 3-7 6-8 4.5-7.5h7.5l6-3.5V128l8-10 4.5-4.5H539l7 4.5 7.5-4.5h10l7 4.5 7-10h7l8.5 5.5h15.5l6 4.5h4.5l6.5 10v9l8 3.5v8.5l7 13.5v7.5l-7 17 11.5 8.5v6h12l10 7h6.5V219c0 5.6 5 2.333 7.5 0l5.5-5.5h19l7.5-5h10l3.5-7 3.5-6-3.5-5 6-5.5h4.5v-18.5l4.5 3.5 4-10.5v-7l3.5-3.5-3.5-15.5-13 3.5v7.5H723l3.5-11L737 128v-10l8.5-10 7-7.5L762 95c-2-2-4.1-5.4 3.5-3 7.6 2.4 8.5-2 8-4.5h8.5V81h10l-10-14.5V55l10 4v-8l-6.5-4c-2.167-1.5-5.2-4.6 0-5 5.2-.4 2.167-15.5 0-23H797c-4.5-3.833-11.8-11.1-5-9.5 6.8 1.6 12.5.667 14.5 0l15 6v-6h9L827 1h7l12 8.5-5.5 9.5v15.5l19.5-4 5 4h6.5L877 47l-17 4-3.5 8h-6l-4.5 7.5 10.5 8L860 81c3.333.833 9 4.2 5 11s-7.333 13.5-8.5 16l-6 14v11.5L865 137l-8.5 22.5 20.5 7v7.5c-.5-6.333.3-17.5 7.5-11.5s12.667 10.167 14.5 11.5c.333-2.667 2.1-7.2 6.5-4s11.5 4 14.5 4v11l-11 5.5-3.5 5v13l3.5 5-3.5 8-6.5 9h-14.5c-2.5.167-7.5 2.1-7.5 8.5s5 12.667 7.5 15h7.5l7 12 6.5 3.5V294H899v7.5c2.167-.5 6.5-.1 6.5 5.5s-9 10.333-13.5 12c-.833.167-7.4 1.6-27 6s-27.5 3.833-29 3l-5.5-3-9 8.5L826 349l-15.5-5H797l-5 5-13.5 6-5 24 5 14.5-5 10-9.5 12-14-9h-20l-12.5-3c-.5 1.5-.1 6 5.5 12 7 7.5 7 2.5 3.5 13.5-2.8 8.8-15.167 3.667-21 0l7.5-13.5h-7.5l-8-4H691l-10-8h-7.5l-6.5 8h-10l-12-8h-19.5l3 14.5-3 5h-23l6 13v11c-3.5 5.833-8.4 16.9 0 14.5 10.5-3 11.5 3 17-7 12-6 18-7.5 19.5-7.5 2.667.333 9.4 2.7 15 9.5s.333 17.5-3 22l-7.5 16c-6.833 3-18.9 7.2-12.5 0 6.4-7.2 8-17.667 8-22l-16.5-7H619l-6 3 6 10-6 11.5v13.5l-13-6-13-14.5-11 7c-5.333-2.667-14.1-6.4-6.5 0s12.5 11.667 14 13.5c2.333 3.5 4.9 10.1-3.5 8.5-8.4-1.6-17.167 3-20.5 5.5-2.167-6-7.3-15.5-10.5-5.5s-1.333 15.5 0 17l5.5 6"/>
  <path stroke="#000" d="m551 543.5 3.5-8 2.5 11 3.5 10.5v9l6.5 9v10.5l-4.5 3v10c-6.333 3.333-19 8-19 0s-4-12-6-13l-12.5-3-8.5 16-13 19.5H493v-8.5l-14 8.5-9 10c-4.333 4.333-13.2 10.4-14 0-.8-10.4-7.333-16.667-10.5-18.5L419 613l-3 5.5h-8.5c-1.833 6.5-6.8 17.5-12 9.5S381 614.667 377 613l-27-3.5-5 12.5h-9.5l-9.5-4h-14l-8.5-8.5-5 12.5-14.5-3.5c-4-3.667-11.4-11.9-9-15.5 2.4-3.6 1-11.167 0-14.5l-6-6-17.5-7.5-13-4.5c-4-9-12.3-24.3-13.5-13.5-1.5 13.5-9.5 18-10 13.5-.4-3.6-3.833-4.5-5.5-4.5v4.5l-10.5 12h-7.5l-19-3.5-4-13-3.5-9-9 4.5h-9l-20.5 9-3.5 8.5-9.5 14.5H106l-11.5 5L81 618l-7.5-5 4.5-13h-8.5l-9 9.5L53 622l-4 12-5 14.5-8.5 12-3.5 16L13.5 689m838-391v-19.5"/>
  <rect width="73" height="14" x="815" y="265" fill="#20A70B" rx="4"/>
  <path fill="#000" d="M382.477 353.818h2.762l9.498 22.807h.23l9.499-22.807h2.761V380h-2.25v-21.132h-.204L395.939 380h-2.173l-8.834-21.132h-.205V380h-2.25v-26.182ZM414.227 380h-2.506l9.524-26.182h2.557L433.326 380h-2.506l-8.207-23.075h-.179L414.227 380Zm1.802-10.036h12.989v2.148h-12.989v-2.148ZM445.484 380h-7.671v-26.182h8.131c2.497 0 4.632.52 6.405 1.56 1.781 1.04 3.145 2.531 4.091 4.474.946 1.943 1.419 4.274 1.419 6.993 0 2.744-.486 5.101-1.458 7.07-.963 1.96-2.369 3.464-4.218 4.513-1.841 1.048-4.074 1.572-6.699 1.572Zm-5.28-2.148h5.139c2.25 0 4.134-.443 5.651-1.329 1.517-.887 2.654-2.152 3.413-3.797.758-1.645 1.138-3.605 1.138-5.881-.009-2.258-.384-4.202-1.125-5.829-.733-1.628-1.824-2.877-3.273-3.746-1.44-.869-3.222-1.304-5.344-1.304h-5.599v21.886Zm40.899-24.034h2.391v17.335c0 1.782-.418 3.375-1.253 4.782-.835 1.397-1.998 2.501-3.49 3.311-1.483.801-3.209 1.201-5.177 1.201-1.961 0-3.687-.404-5.178-1.214-1.492-.81-2.655-1.913-3.49-3.311-.835-1.398-1.253-2.987-1.253-4.769v-17.335h2.391v17.169c0 1.389.311 2.629.933 3.72a6.688 6.688 0 0 0 2.621 2.557c1.133.622 2.458.933 3.976.933 1.517 0 2.842-.311 3.975-.933 1.134-.622 2.007-1.474 2.621-2.557.622-1.091.933-2.331.933-3.72v-17.169ZM490.442 380v-26.182h8.45c1.858 0 3.409.337 4.654 1.01 1.253.665 2.194 1.59 2.825 2.774.639 1.176.959 2.527.959 4.053 0 1.525-.32 2.872-.959 4.04-.631 1.167-1.568 2.079-2.812 2.735-1.245.657-2.787.985-4.628.985h-7.198v-2.186h7.134c1.363 0 2.497-.226 3.4-.678.912-.452 1.59-1.095 2.033-1.93.452-.835.678-1.824.678-2.966 0-1.142-.226-2.139-.678-2.992-.452-.86-1.133-1.525-2.045-1.994-.904-.469-2.046-.703-3.427-.703h-5.995V380h-2.391Zm11.544-11.812L508.429 380h-2.761l-6.379-11.812h2.697ZM513.191 380h-2.505l9.524-26.182h2.557L532.291 380h-2.506l-8.207-23.075h-.179L513.191 380Zm1.803-10.036h12.989v2.148h-12.989v-2.148Zm24.175-16.146V380h-2.391v-26.182h2.391Z"/>
  <path fill="#fff" d="M821.263 276h-1.977l3.012-8.727h2.378l3.009 8.727h-1.978l-2.186-6.733h-.068l-2.19 6.733Zm-.124-3.43h4.671v1.44h-4.671v-1.44Zm8.083-5.297 2.109 6.63h.081l2.114-6.63h2.045L832.563 276h-2.378l-3.013-8.727h2.05Zm7.744 8.727h-1.977l3.012-8.727h2.378l3.009 8.727h-1.977l-2.187-6.733h-.068l-2.19 6.733Zm-.124-3.43h4.671v1.44h-4.671v-1.44Zm9.441-5.297V276h-1.845v-8.727h1.845Zm1.518 8.727v-8.727h1.846v7.206h3.741V276h-5.587Zm8.536 0h-1.977l3.013-8.727h2.377l3.009 8.727h-1.977l-2.186-6.733h-.069l-2.19 6.733Zm-.124-3.43h4.671v1.44h-4.671v-1.44Zm7.596 3.43v-8.727h3.495c.642 0 1.177.095 1.606.285.429.191.752.455.967.793.216.335.324.721.324 1.159 0 .341-.068.641-.204.899a1.77 1.77 0 0 1-.563.631 2.291 2.291 0 0 1-.809.345v.085c.332.014.643.108.933.281.292.174.53.417.712.729.181.31.272.679.272 1.108 0 .463-.115.876-.345 1.24-.227.361-.564.646-1.01.857-.446.21-.996.315-1.649.315h-3.729Zm1.845-1.509h1.505c.514 0 .889-.098 1.125-.294.236-.198.353-.463.353-.792 0-.242-.058-.455-.174-.639a1.188 1.188 0 0 0-.499-.435 1.708 1.708 0 0 0-.763-.158h-1.547v2.318Zm0-3.566h1.368c.253 0 .478-.044.674-.132.199-.091.355-.219.468-.384a.996.996 0 0 0 .175-.592.955.955 0 0 0-.337-.763c-.221-.193-.536-.29-.946-.29h-1.402v2.161Zm6.089 5.075v-8.727h1.845v7.206h3.742V276h-5.587Zm6.808 0v-8.727h5.881v1.521h-4.035v2.08h3.733v1.521h-3.733v2.084h4.052V276h-5.898Z"/>
</svg>
